<?xml version="1.0" encoding="UTF-8"?>
<svg width="32" height="32" viewBox="0 0 32 32" fill="none" xmlns="http://www.w3.org/2000/svg">
  <rect width="32" height="32" rx="6" fill="#10b981"/>
  <path d="M16 6C10.5 6 6 10.5 6 16c0 5.5 4.5 10 10 10s10-4.5 10-10-4.5-10-10-10zm0 18c-4.4 0-8-3.6-8-8s3.6-8 8-8 8 3.6 8 8-3.6 8-8 8zm3.5-9c.8 0 1.5-.7 1.5-1.5S20.3 12 19.5 12 18 12.7 18 13.5s.7 1.5 1.5 1.5zm-7 0c.8 0 1.5-.7 1.5-1.5S13.3 12 12.5 12 11 12.7 11 13.5s.7 1.5 1.5 1.5zm3.5 6c-2.3 0-4.3-1.2-5.5-3h11c-1.2 1.8-3.2 3-5.5 3z" fill="white"/>
</svg>
